<svg version="1.1" xmlns="http://www.w3.org/2000/svg" xmlns:xlink="http://www.w3.org/1999/xlink" preserveAspectRatio="xMidYMid meet" viewBox="540 238 125 126"><g data-item-type="text" data-item="Business" id="logo__item--business" class="logo__item">
                <g class="logo__item__inner" transform="translate(605 360.66413094198515) scale(1 1) rotate(0 0 0)">
                    <text data-part-id="logo__item--business" dy="0" dominant-baseline="auto" alignment-baseline="auto" font-family="Montserrat" font-size="32px" fill="#404041" letter-spacing="0" font-weight="bold" font-style="normal" data-font-family="Montserrat" data-font-weight="bold" data-font-style="normal" data-ttf-url="/builder_assets/fontsttf/font-montserrat-bold-normal.ttf"></text>
                </g>
            </g><g data-item-type="image" data-item="Image" data-logo-item="" id="logo__item--logo_0" class="logo__item">
    <g class="logo__item__inner" transform="translate(527.8593175939858 224) scale(1.539626090079536 1.539626090079536) rotate(0 0 0)">
        
<g>
	<g>
		<polygon fill="#B01476" points="27.952,84.373 47.535,75.102 9.834,66.421" data-part-id="logo__item--logo_0__0"></polygon>
		<polygon fill="#B01476" points="69.656,16.515 50.074,25.796 87.775,34.47" data-part-id="logo__item--logo_0__1"></polygon>
		<polygon fill="#EA712B" points="14.875,29.591 24.153,49.178 32.831,11.474" data-part-id="logo__item--logo_0__2"></polygon>
		<polygon fill="#EA712B" points="82.732,71.303 73.455,51.713 64.781,89.414" data-part-id="logo__item--logo_0__3"></polygon>
		<polygon fill="#E13339" points="58.049,89.182 65.338,68.769 32.546,89.296" data-part-id="logo__item--logo_0__4"></polygon>
		<polygon fill="#E13339" points="39.56,11.709 32.275,32.119 65.066,11.591" data-part-id="logo__item--logo_0__5"></polygon>
		<polygon fill="#F4A004" points="10.066,59.692 30.476,66.977 9.952,34.185" data-part-id="logo__item--logo_0__6"></polygon>
		<polygon fill="#F4A004" points="87.539,41.199 67.137,33.915 87.656,66.706" data-part-id="logo__item--logo_0__7"></polygon>
	</g>
	
		<rect x="41.046" y="47.854" transform="matrix(0.0064 1 -1 0.0064 107.484 -7.3906)" fill="#00AAE6" width="32.83" height="5.072" data-part-id="logo__item--logo_0__8"></rect>
	
		<rect x="34.867" y="50.373" transform="matrix(0.0062 1 -1 0.0062 101.4222 3.7586)" fill="#00AAE6" width="27.907" height="5.069" data-part-id="logo__item--logo_0__9"></rect>
	
		<rect x="28.689" y="52.888" transform="matrix(0.0063 1 -1 0.0063 95.3485 14.8955)" fill="#00AAE6" width="22.979" height="5.073" data-part-id="logo__item--logo_0__10"></rect>
</g>

    </g>
</g></svg>