<?xml version="1.0" encoding="iso-8859-1"?>
<!-- Generator: Adobe Illustrator 19.0.0, SVG Export Plug-In . SVG Version: 6.00 Build 0)  -->
<svg version="1.1" id="Capa_1" xmlns="http://www.w3.org/2000/svg" xmlns:xlink="http://www.w3.org/1999/xlink" x="0px" y="0px"
	 viewBox="0 0 512.001 512.001" style="enable-background:new 0 0 512.001 512.001;" xml:space="preserve">
<path style="fill:#43BE5F;" d="M504.499,225.931v-59.195c0-2.641-1.912-4.95-4.53-5.305c-16.295-2.211-28.858-16.183-28.858-33.083
	c0-0.019,0-0.038,0-0.056c0.005-3.002-2.353-5.468-5.355-5.468H46.244c-3.002,0-5.36,2.466-5.355,5.468c0,0.019,0,0.038,0,0.056
	c0,16.901-12.563,30.872-28.858,33.083c-2.617,0.355-4.53,2.663-4.53,5.305v59.195c0,2.595,1.862,4.815,4.418,5.267
	c11.804,2.088,20.771,12.4,20.771,24.803c0,12.403-8.966,22.715-20.771,24.803c-2.555,0.452-4.418,2.671-4.418,5.267v59.195
	c0,2.641,1.912,4.95,4.53,5.305c16.295,2.211,28.858,16.183,28.858,33.083c0,0.019,0,0.038,0,0.056
	c-0.005,3.003,2.353,5.468,5.355,5.468h419.511c3.002,0,5.36-2.466,5.355-5.468c0-0.019,0-0.038,0-0.056
	c0-16.901,12.563-30.872,28.858-33.083c2.617-0.355,4.53-2.663,4.53-5.305V286.07c0-2.595-1.862-4.815-4.419-5.267
	c-11.804-2.089-20.771-12.4-20.771-24.803c0-12.403,8.966-22.715,20.771-24.803C502.637,230.745,504.499,228.526,504.499,225.931z"
	/>
<path style="fill:#2ea94a;" d="M479.305,256.001c0,12.402,8.971,22.714,20.773,24.804c2.56,0.45,4.421,2.67,4.421,5.261v59.199
	c0,2.64-1.91,4.951-4.531,5.301c-16.293,2.22-28.855,16.183-28.855,33.085v0.06c0,3-2.36,5.471-5.361,5.471h-25.094
	c0.68-17.183,10.427-42.974,27.149-45.244c2.76-0.37,4.771-2.81,4.771-5.591V176.654c0-2.78-2.01-5.221-4.771-5.591
	c-16.723-2.27-26.469-31.062-27.149-48.245h25.094c3,0,5.361,2.47,5.361,5.471v0.06c0,16.903,12.562,30.865,28.855,33.085
	c2.62,0.35,4.531,2.66,4.531,5.301v59.199c0,2.59-1.86,4.811-4.421,5.261C488.276,233.287,479.305,243.599,479.305,256.001z"/>
<path style="fill:#E2EEFD;" d="M426.554,353.389H85.446c-2.761,0-5.001-2.239-5.001-5.001V163.612c0-2.761,2.239-5.001,5.001-5.001
	h341.109c2.761,0,5.001,2.239,5.001,5.001v184.776C431.555,351.151,429.317,353.389,426.554,353.389z"/>
<path style="fill:#C7DCF2;" d="M426.554,353.389h-23.532V158.611h23.532c2.761,0,5.001,2.239,5.001,5.001v184.776
	C431.555,351.151,429.317,353.389,426.554,353.389z"/>
<path d="M501.387,238.585c6.149-1.088,10.613-6.41,10.613-12.653v-59.196c0-6.408-4.738-11.884-11.023-12.737
	c-12.751-1.73-22.366-12.758-22.366-25.693c0.006-3.493-1.341-6.769-3.794-9.224c-2.419-2.423-5.639-3.759-9.063-3.759H46.244
	c-3.425,0-6.644,1.335-9.063,3.759c-2.451,2.455-3.799,5.731-3.793,9.267c0,12.893-9.615,23.92-22.366,25.65
	C4.739,154.852,0,160.327,0,166.735v59.196c0,6.244,4.463,11.565,10.613,12.653c8.446,1.493,14.576,8.818,14.576,17.416
	c0,8.597-6.13,15.923-14.576,17.416C4.463,274.504,0,279.825,0,286.069v59.196c0,6.408,4.739,11.884,11.023,12.737
	c12.751,1.73,22.366,12.758,22.366,25.693c-0.006,3.493,1.341,6.769,3.793,9.224c2.419,2.423,5.639,3.759,9.063,3.759h73.402
	c4.143,0,7.501-3.358,7.501-7.501c0-4.144-3.359-7.501-7.501-7.501H48.342c-0.914-18.844-14.815-34.781-33.339-38.224v-55.628
	c14.7-3.44,25.189-16.546,25.189-31.824s-10.489-28.385-25.189-31.825v-55.628c18.505-3.439,32.396-19.347,33.337-38.224h415.319
	c0.914,18.844,14.815,34.782,33.34,38.224v55.628c-14.701,3.439-25.19,16.545-25.19,31.824s10.488,28.385,25.19,31.824v55.628
	c-18.506,3.439-32.397,19.347-33.337,38.224H166.319c-4.143,0-7.501,3.358-7.501,7.501c0,4.144,3.359,7.501,7.501,7.501h299.436
	c3.425,0,6.644-1.335,9.063-3.759c2.452-2.455,3.8-5.731,3.794-9.267c0-12.893,9.615-23.92,22.367-25.65
	c6.283-0.854,11.022-6.329,11.022-12.737v-59.196c0-6.243-4.464-11.565-10.613-12.653c-8.446-1.493-14.576-8.818-14.576-17.416
	S492.941,240.078,501.387,238.585z"/>
<path d="M284.004,166.112c4.144,0,7.501-3.358,7.501-7.501s-3.358-7.501-7.501-7.501H85.446c-6.894,0-12.502,5.608-12.502,12.502
	v184.777c0,6.894,5.608,12.502,12.502,12.502h341.109c6.894,0,12.502-5.608,12.502-12.502V163.612
	c0-6.894-5.608-12.502-12.502-12.502h-95.042c-4.144,0-7.501,3.358-7.501,7.501s3.358,7.501,7.501,7.501h92.542v179.776H87.946
	V166.112H284.004z"/>
<path d="M146.436,217.077h-33.843c-3.747,0-6.795,3.163-6.795,7.052c0,3.889,3.048,7.052,6.795,7.052h9.87v51.49
	c0,3.923,3.068,6.881,7.138,6.881c4.002,0,7.137-3.022,7.137-6.881v-51.49h9.699c3.875,0,6.796-3.067,6.796-7.137
	C153.232,220.137,150.247,217.077,146.436,217.077z"/>
<path d="M169.084,217.077c-4.069,0-7.138,2.921-7.138,6.796v58.798c0,3.858,3.135,6.881,7.138,6.881
	c4.069,0,7.137-2.958,7.137-6.881v-58.798C176.221,219.999,173.152,217.077,169.084,217.077z"/>
<path d="M212.243,231.181c6.395,0,7.52,3.006,7.735,5.983c0.107,3.826,3.074,6.58,7.135,6.58c3.451,0,7.137-2.054,7.137-7.82
	c0-9.365-7.559-18.847-22.007-18.847c-13.838,0-22.436,8.793-22.436,22.949v27.091c0,14.154,8.498,22.948,22.179,22.948
	c14.616,0,22.265-9.48,22.265-18.846c0-5.829-3.731-7.906-7.223-7.906c-3.81,0-6.6,2.461-7.012,6.149
	c-0.649,4.056-1.099,6.499-7.517,6.499c-6.293,0-8.416-2.231-8.416-8.844v-27.091C204.082,234.424,205.417,231.181,212.243,231.181z
	"/>
<path d="M271.246,249.364l16.55-20.631c1.121-1.144,1.75-2.715,1.75-4.433c0-3.849-3.416-7.224-7.309-7.224
	c-2.199,0-4.215,0.995-5.45,2.677l-17.239,21.731v-17.612c0-3.875-3.068-6.796-7.137-6.796c-4.069,0-7.138,2.921-7.138,6.796v58.798
	c0,3.858,3.135,6.881,7.138,6.881c4.069,0,7.137-2.958,7.137-6.881v-18.665l2.321-2.888l16.862,25.225
	c1.327,2.064,3.494,3.295,5.814,3.295c4.008,0,7.394-3.269,7.394-7.137c0-1.475-0.471-2.853-1.338-3.95L271.246,249.364z"/>
<path d="M337.36,231.181c3.812,0,6.796-3.135,6.796-7.137c0-3.972-2.921-6.967-6.796-6.967h-30.425
	c-3.955,0-7.052,3.022-7.052,6.882v58.712c0,3.858,3.097,6.881,7.052,6.881h30.425c3.875,0,6.796-2.995,6.796-6.967
	c0-4.002-2.984-7.137-6.796-7.137H314.16v-15.21h8.587c3.812,0,6.796-3.021,6.796-6.88c0-3.955-2.984-7.052-6.796-7.052h-8.587
	V231.18h23.201V231.181z"/>
<path d="M388.724,217.077h-33.843c-3.748,0-6.796,3.163-6.796,7.052c0,3.889,3.048,7.052,6.796,7.052h9.87v51.49
	c0,3.923,3.067,6.881,7.137,6.881c4.003,0,7.138-3.022,7.138-6.881v-51.49h9.699c3.875,0,6.796-3.067,6.796-7.137
	C395.521,220.137,392.535,217.077,388.724,217.077z"/>
<g>
</g>
<g>
</g>
<g>
</g>
<g>
</g>
<g>
</g>
<g>
</g>
<g>
</g>
<g>
</g>
<g>
</g>
<g>
</g>
<g>
</g>
<g>
</g>
<g>
</g>
<g>
</g>
<g>
</g>
</svg>
